Coordinates
version=1
nRows=60
nColumns=12
inDegrees=yes

Units are S.I. units (second, meters, Newtons, ...)
Angles are in degrees

endheader
time	SC_y	SC_z	SC_x	AC_y	AC_z	AC_x	GH_y	GH_z	GH_yy	EL_x	PS_y
       0.0              -19.74           10.0          21.11          53.49         -8.067          2.643          130.0          50.66         -104.1          113.7          104.1
  0.005088              -19.74           10.0          21.11          53.49         -8.065          2.644          130.0          50.66         -104.1          113.7          104.1
   0.01018              -19.74           10.0          21.11          53.49         -8.062          2.644          130.0          50.66         -104.0          113.7          104.1
   0.01526              -19.74           10.0          21.11          53.49          -8.06          2.645          130.0          50.66         -104.0          113.7          104.1
   0.02035              -19.74           10.0          21.11          53.49         -8.057          2.645          130.0          50.66         -104.0          113.7          104.1
   0.02544              -19.74          9.999          21.11          53.49         -8.054          2.646          130.0          50.66         -103.9          113.7          104.1
   0.03053              -19.74          9.998          21.11          53.48         -8.051          2.647          130.0          50.67         -103.9          113.7          104.1
   0.03562              -19.74          9.997          21.11          53.48         -8.048          2.647          130.0          50.67         -103.9          113.7          104.1
   0.04071              -19.74          9.996          21.11          53.48         -8.045          2.648          130.0          50.67         -103.8          113.7          104.1
   0.04579              -19.74          9.994          21.11          53.48         -8.041          2.649          130.0          50.67         -103.8          113.6          104.1
   0.05088              -19.74          9.993          21.11          53.48         -8.037           2.65          130.0          50.67         -103.8          113.6          104.1
   0.05597              -19.74          9.992          21.11          53.48         -8.033          2.651          130.0          50.67         -103.7          113.6          104.1
   0.06106              -19.74           9.99          21.11          53.48         -8.028          2.652          130.0          50.67         -103.7          113.6          104.1
   0.06615              -19.74          9.988           21.1          53.48         -8.023          2.653          130.0          50.67         -103.6          113.6          104.1
   0.07124              -19.73          9.987           21.1          53.47         -8.018          2.654          130.0          50.68         -103.5          113.5          104.1
   0.07632              -19.73          9.985           21.1          53.47         -8.012          2.655          130.0          50.68         -103.5          113.5          104.1
   0.08141              -19.73          9.982           21.1          53.47         -8.006          2.656          130.0          50.68         -103.4          113.5          104.1
    0.0865              -19.73           9.98           21.1          53.47         -7.999          2.658          130.0          50.68         -103.3          113.5          104.1
   0.09159              -19.73          9.978           21.1          53.47         -7.992          2.659          130.0          50.68         -103.2          113.4          104.1
   0.09668              -19.73          9.975           21.1          53.46         -7.983          2.661          130.0          50.69         -103.2          113.4          104.1
    0.1018              -19.73          9.972           21.1          53.46         -7.974          2.663          130.0          50.69         -103.1          113.4          104.1
    0.1069              -19.73          9.969           21.1          53.46         -7.964          2.665          130.0          50.69         -102.9          113.3          104.1
    0.1119              -19.73          9.965           21.1          53.45         -7.953          2.667          130.0           50.7         -102.8          113.3          104.1
     0.117              -19.73          9.961           21.1          53.45         -7.941           2.67          129.9           50.7         -102.7          113.2          104.1
    0.1221              -19.73          9.956           21.1          53.45         -7.928          2.673          129.9          50.71         -102.5          113.2          104.1
    0.1272              -19.73          9.951           21.1          53.44         -7.913          2.676          129.9          50.71         -102.4          113.1          104.1
    0.1323              -19.73          9.946           21.1          53.44         -7.896           2.68          129.9          50.72         -102.2          113.0          104.2
    0.1374              -19.72          9.939           21.1          53.43         -7.877          2.684          129.9          50.72         -102.0          113.0          104.2
    0.1425              -19.72          9.932           21.1          53.42         -7.855          2.688          129.9          50.73         -101.7          112.9          104.2
    0.1476              -19.72          9.924           21.1          53.42         -7.831          2.693          129.9          50.74         -101.5          112.8          104.2
    0.1526              -19.72          9.914           21.1          53.41         -7.803          2.699          129.9          50.74         -101.1          112.7          104.2
    0.1577              -19.72          9.904           21.1           53.4         -7.771          2.706          129.8          50.75         -100.8          112.5          104.2
    0.1628              -19.71          9.891           21.1          53.38         -7.735          2.714          129.8          50.77         -100.4          112.4          104.2
    0.1679              -19.71          9.877           21.1          53.37         -7.692          2.723          129.8          50.78          -99.9          112.2          104.3
     0.173              -19.71           9.86           21.1          53.36         -7.642          2.733          129.7           50.8         -99.34          112.0          104.3
    0.1781               -19.7           9.84           21.1          53.34         -7.583          2.746          129.7          50.82         -98.69          111.8          104.3
    0.1832              -19.69          9.817           21.1          53.32         -7.513          2.761          129.7          50.84          -97.9          111.5          104.4
    0.1883              -19.69          9.789           21.1          53.29         -7.428          2.778          129.6          50.86         -96.96          111.1          104.4
    0.1934              -19.68          9.754          21.09          53.26         -7.327            2.8          129.5           50.9         -95.83          110.7          104.5
    0.1984              -19.67          9.713          21.09          53.22         -7.203          2.826          129.4          50.94         -94.44          110.2          104.6
    0.2035              -19.66          9.661          21.09          53.17         -7.049          2.859          129.3          50.99         -92.73          109.6          104.6
    0.2086              -19.64          9.597          21.09          53.11         -6.858          2.899          129.2          51.05          -90.6          108.8          104.7
    0.2137              -19.62          9.516          21.08          53.03         -6.617           2.95          129.0          51.12         -87.91          107.8          104.9
    0.2188               -19.6          9.413          21.08          52.94         -6.311          3.015          128.8          51.22          -84.5          106.6          105.1
    0.2239              -19.57          9.281          21.07          52.82         -5.919          3.098          128.6          51.35         -80.13          105.0          105.3
     0.229              -19.53          9.112          21.06          52.66         -5.416          3.204          128.2          51.51         -74.52          102.9          105.6
    0.2341              -19.48          8.897          21.05          52.46         -4.773           3.34          127.8          51.71         -67.35          100.3          105.9
    0.2392              -19.42          8.625          21.04           52.2         -3.965          3.511          127.3          51.97         -58.34          96.98          106.4
    0.2442              -19.34          8.294          21.02          51.89         -2.981          3.719          126.6          52.29         -47.36          92.96          107.0
    0.2493              -19.25          7.911           21.0          51.54          -1.84           3.96          125.8          52.65         -34.63          88.29          107.6
    0.2544              -19.15          7.496          20.98          51.15        -0.6041          4.222          125.0          53.04         -20.84          83.24          108.3
    0.2595              -19.05          7.081          20.96          50.76         0.6315          4.483          124.1          53.44          -7.06          78.19          109.0
    0.2646              -18.96          6.698          20.94           50.4          1.773          4.724          123.4           53.8          5.669          73.53          109.7
    0.2697              -18.89          6.367          20.93          50.09          2.757          4.933          122.7          54.12          16.65          69.51          110.2
    0.2748              -18.82          6.095          20.91          49.84          3.565          5.103          122.1          54.38          25.66           66.2          110.7
    0.2799              -18.77           5.88           20.9          49.64          4.208          5.239          121.7          54.58          32.83          63.58          111.0
    0.2849              -18.73          5.711          20.89          49.48          4.711          5.346          121.4          54.74          38.44          61.52          111.3
      0.29               -18.7          5.579          20.89          49.36          5.103          5.429          121.1          54.87          42.81          59.92          111.6
    0.2951              -18.68          5.476          20.88          49.26          5.409          5.493          120.9          54.96          46.23          58.67          111.7
    0.3002              -18.66          5.395          20.88          49.19           5.65          5.544          120.7          55.04          48.91          57.68          111.9
